<svg id="svg" version="1.1" xmlns="http://www.w3.org/2000/svg" viewBox="0 0 500 500" style="display: block;"><path d="M0 0 C165 0 330 0 500 0 C500 165 500 330 500 500 C335 500 170 500 0 500 C0 335 0 170 0 0 Z " transform="translate(0,0)" style="fill: #262424;"/><path d="M0 0 C165 0 330 0 500 0 C500 165 500 330 500 500 C335 500 170 500 0 500 C0 335 0 170 0 0 Z M174.91015625 51.71875 C171.05570187 56.30760933 171.05570187 56.30760933 170 62 C168.3125769 61.96072388 168.3125769 61.96072388 166.59106445 61.9206543 C162.40734843 61.82998255 158.22371879 61.77268963 154.03930664 61.7253418 C152.23023868 61.7002361 150.42127178 61.66614405 148.61254883 61.62280273 C146.00837249 61.56197421 143.40553969 61.53375191 140.80078125 61.51171875 C139.99538406 61.48591232 139.18998688 61.4601059 138.36018372 61.43351746 C134.20255159 61.43145258 132.44534065 61.68527074 128.94995117 64.15551758 C126.66788038 67.48447798 126.83023704 69.06875578 127 73 C126.1806044 72.99333817 125.3612088 72.98667633 124.51698303 72.97981262 C116.76439631 72.91949962 109.01192465 72.87392357 101.25916386 72.84456348 C97.27415453 72.82896132 93.28934039 72.80782384 89.30444336 72.77368164 C85.45297282 72.74089217 81.60168908 72.72310608 77.75008965 72.71536827 C76.28659567 72.70985967 74.82311098 72.69910338 73.35969734 72.68280983 C62.15929211 72.56315634 53.16257035 73.0864875 44.7265625 81.03515625 C39.3367799 87.16877763 37.87824861 93.92032438 37.86857224 101.92844677 C37.86473109 103.12355631 37.86088995 104.31866585 37.8569324 105.54999083 C37.85779888 106.85930975 37.85866537 108.16862866 37.85955811 109.5176239 C37.85697351 110.9254948 37.85396009 112.33336497 37.8505547 113.74123412 C37.8424925 117.60997318 37.84069557 121.47869367 37.83995724 125.34744012 C37.83810532 129.52004835 37.83055728 133.69264697 37.82382202 137.86524963 C37.81024368 146.98929962 37.80421475 156.11334522 37.79981136 165.23740363 C37.79704808 170.93535248 37.79281056 176.63329963 37.78830719 182.33124733 C37.77611514 198.10960502 37.76581572 213.88796136 37.7624321 229.66632366 C37.76221253 230.67605548 37.76199297 231.68578731 37.76176675 232.72611706 C37.76154847 233.73825418 37.76133019 234.7503913 37.7611053 235.79319924 C37.76066183 237.8441478 37.76021527 239.89509636 37.75976562 241.94604492 C37.7595442 242.96338456 37.75932277 243.9807242 37.75909463 245.02889232 C37.75514705 261.51148168 37.73769399 277.99402683 37.7144061 294.47659912 C37.69068554 311.4021332 37.67822992 328.32764509 37.67706418 345.25319606 C37.67614781 354.75499525 37.67040513 364.25673682 37.65224457 373.75852013 C37.63683408 381.8499082 37.63172872 389.94122085 37.63998267 398.03262081 C37.64388582 402.15941928 37.64297599 406.28606589 37.62892532 410.41284561 C37.61616634 414.19490566 37.6174013 417.97670005 37.62951604 421.75875983 C37.63239107 423.76628124 37.62055241 425.77380733 37.60809398 427.78129214 C37.66043937 437.37802767 38.6343455 446.39657935 45 454 C52.62182964 460.67374839 59.98122699 461.29536761 69.81561279 461.27415466 C71.01424808 461.27939134 72.21288336 461.28462802 73.44784093 461.29002339 C76.7671092 461.3024183 80.08616546 461.30586725 83.40544224 461.30542648 C86.98840322 461.30707731 90.57132586 461.32014875 94.15426636 461.33161926 C101.98491074 461.35444739 109.81552799 461.36238744 117.64620113 461.36744571 C122.53793427 461.37070512 127.42965955 461.37722905 132.32138824 461.3844471 C145.87198508 461.40400977 159.42257463 461.42041606 172.97318649 461.42332363 C173.83993785 461.4235112 174.70668922 461.42369877 175.59970577 461.42389202 C177.35672776 461.42425827 179.11374975 461.42462197 180.87077174 461.42498314 C182.1790073 461.42525735 182.1790073 461.42525735 183.51367188 461.42553711 C184.3868965 461.42571766 185.26012113 461.42589821 186.15980712 461.42608423 C200.30796476 461.4296256 214.45597018 461.45664712 228.60407504 461.494035 C243.13854093 461.53213576 257.67293131 461.55148123 272.20744824 461.55178314 C280.36453821 461.5523673 288.52144654 461.56083219 296.67848969 461.58978081 C303.62439321 461.61431834 310.57004885 461.62156164 317.51598403 461.60653328 C321.05761204 461.59937408 324.59875078 461.60017813 328.14032364 461.62294388 C331.98591563 461.64742633 335.83081342 461.63287027 339.67645264 461.61473083 C340.7871703 461.6279308 341.89788797 461.64113077 343.04226375 461.65473074 C351.45607089 461.564241 357.92349882 459.39055146 364.4375 453.97265625 C364.953125 453.34230469 365.46875 452.71195312 366 452.0625 C366.53625 451.43472656 367.0725 450.80695313 367.625 450.16015625 C370.83045292 445.12431687 371.24680794 440.30195727 371.22705078 434.43408203 C371.22748886 433.3354911 371.22748886 433.3354911 371.22793579 432.21470642 C371.22655094 429.81228471 371.21102997 427.41017952 371.1953125 425.0078125 C371.19157936 423.33487111 371.18873381 421.66192752 371.18673706 419.98898315 C371.1791243 415.59954728 371.15949619 411.2102451 371.1373291 406.82086182 C371.11681976 402.33632211 371.10772448 397.85176066 371.09765625 393.3671875 C371.07624796 384.57806385 371.04214065 375.78904859 371 367 C372.05378342 367.00888245 373.10756683 367.01776489 374.19328308 367.0269165 C384.12506264 367.10800955 394.05677501 367.16796889 403.98881054 367.20724869 C409.09497566 367.22812179 414.20087348 367.25643456 419.30688477 367.30175781 C424.2346643 367.34522517 429.16218675 367.36913919 434.0901432 367.37950897 C435.9700354 367.38689873 437.84991355 367.40132923 439.72969627 367.42292023 C442.36331948 367.4519662 444.99588101 367.45595553 447.62963867 367.45410156 C448.79489326 367.47567322 448.79489326 367.47567322 449.98368835 367.49768066 C453.33714074 367.47214391 455.90214548 367.04234401 458.98469543 365.70845032 C462.29431323 361.26051946 461.6779804 356.60570837 461.61523438 351.21069336 C461.62355789 349.40288139 461.62355789 349.40288139 461.63204956 347.55854797 C461.64183668 344.25645858 461.62924564 340.95593445 461.60576439 337.65401149 C461.58565322 334.19875195 461.59153499 330.74352694 461.59387207 327.28822327 C461.59381851 321.48684953 461.57406604 315.68580159 461.54199219 309.88452148 C461.50508216 303.17586526 461.49631902 296.46763555 461.5032897 289.75889105 C461.50959256 283.30568423 461.49884564 276.85262377 461.47932434 270.39944649 C461.47114623 267.65268431 461.46844153 264.90599689 461.47001648 262.15922356 C461.47105776 258.32596059 461.44689855 254.49308522 461.41992188 250.65991211 C461.42285248 249.51749054 461.42578308 248.37506897 461.42880249 247.19802856 C461.4174527 246.15633011 461.40610291 245.11463165 461.39440918 244.04136658 C461.39068047 243.13490859 461.38695175 242.2284506 461.38311005 241.29452419 C460.92035719 238.52300297 460.22473994 237.66892625 458 236 C454.2292655 234.7430885 450.67604751 234.82564556 446.74609375 234.7890625 C445.06965212 234.76096843 443.39321997 234.73230384 441.71679688 234.703125 C439.086187 234.66208661 436.45574925 234.62518418 433.82495117 234.59863281 C410.79848419 234.34633564 410.79848419 234.34633564 400.9375 227.0625 C399.84249744 226.26946287 398.74744238 225.47649821 397.65234375 224.68359375 C397.07339355 224.25675293 396.49444336 223.82991211 395.89794922 223.39013672 C393.04677917 221.30182153 390.15918672 219.26598935 387.27172852 217.22827148 C385.78681485 216.18029427 384.30412783 215.12915302 382.82397461 214.07446289 C382.13956299 213.58840576 381.45515137 213.10234863 380.75 212.6015625 C380.14671875 212.17182129 379.5434375 211.74208008 378.921875 211.29931641 C376.96006694 209.87009003 376.96006694 209.87009003 374.30053711 208.94628906 C372 207 372 207 371.5539856 205.06832886 C371.38454765 202.45122909 371.38641111 199.87991372 371.44140625 197.2578125 C371.44373764 196.29728973 371.44606903 195.33676697 371.44847107 194.34713745 C371.45821726 192.31450531 371.48002432 190.28190071 371.51293945 188.24951172 C371.56220188 185.14379485 371.57441101 182.03966541 371.58007812 178.93359375 C371.59417022 176.95831655 371.61037681 174.98305306 371.62890625 173.0078125 C371.63426895 172.0805838 371.63963165 171.1533551 371.64515686 170.19802856 C371.72873421 165.64547152 372.00932845 162.17458844 374 158 C374.31558873 154.62082172 374.31558873 154.62082172 374.25 151.0625 C374.25515625 149.87785156 374.2603125 148.69320312 374.265625 147.47265625 C374.17545086 144.08201253 374.17545086 144.08201253 372.99829102 141.42651367 C371.65118778 136.80274406 371.74073791 132.49329932 371.76171875 127.703125 C371.74629596 125.67186834 371.7299921 123.64061822 371.71289062 121.609375 C371.69647526 118.43214405 371.68748796 115.25539468 371.69458008 112.078125 C371.6972171 108.99424867 371.66895842 105.91180836 371.63671875 102.828125 C371.65202888 101.424487 371.65202888 101.424487 371.66764832 99.99249268 C371.55638051 92.39195443 369.40245939 86.02553508 364.44291687 80.15777588 C355.96225157 72.16624302 345.44361567 72.58479431 334.46484375 72.70703125 C332.97555471 72.71263694 331.48626008 72.71690243 329.9969635 72.71989441 C326.10560427 72.73126675 322.21458899 72.76066672 318.32336426 72.79400635 C314.34127452 72.82487289 310.3591284 72.83843493 306.37695312 72.85351562 C298.5844798 72.88554512 290.79228837 72.93664728 283 73 C282.9175 71.741875 282.835 70.48375 282.75 69.1875 C282.38341239 66.45010447 282.1864977 65.2433765 280.48144531 63.01831055 C276.79286857 61.50462956 273.21532687 61.63217824 269.296875 61.70703125 C268.04019012 61.71339851 268.04019012 61.71339851 266.75811768 61.71989441 C264.08841498 61.73665592 261.41947363 61.77430289 258.75 61.8125 C256.93751092 61.82755013 255.12500998 61.84123797 253.3125 61.85351562 C248.87470769 61.88655111 244.43748283 61.93831557 240 62 C239.70665771 61.06285156 239.41331543 60.12570313 239.11108398 59.16015625 C236.14977506 50.73757161 228.53686019 44.96627942 220.7734375 41.1171875 C203.94006856 34.33642198 187.27760726 38.96972609 174.91015625 51.71875 Z " transform="translate(0,0)" style="fill: #000000;"/><path d="M0 0 C16.5 0 33 0 50 0 C50.66 2.97 51.32 5.94 52 9 C54.67459019 10.3372951 56.72219662 10.13205156 59.71835327 10.14044189 C60.9353743 10.14615204 62.15239532 10.15186218 63.40629578 10.15774536 C64.76223745 10.15899077 66.11817923 10.16011586 67.47412109 10.16113281 C68.8964806 10.1657601 70.31883887 10.17078464 71.74119568 10.17617798 C75.61105664 10.18931228 79.48090024 10.19574889 83.35078001 10.20018864 C85.76731952 10.20311758 88.18385427 10.20722204 90.60039139 10.21169281 C98.15772237 10.22537019 105.71504249 10.23503578 113.272385 10.2388947 C122.00273135 10.2433768 130.73292124 10.26093065 139.46322 10.2898953 C146.20721935 10.31149502 152.95117462 10.32159806 159.69520819 10.32293582 C163.72513375 10.32398504 167.75491228 10.3299176 171.78480148 10.34775543 C175.57526159 10.36420679 179.36546369 10.36640607 183.15594673 10.35761642 C184.54752479 10.35684448 185.93911656 10.36120954 187.33065987 10.37107468 C189.22962448 10.38374808 191.12869224 10.37614246 193.02767944 10.36749268 C194.0906745 10.36895924 195.15366955 10.3704258 196.24887657 10.3719368 C199.50914159 9.93116685 200.81765762 9.4734132 203 7 C203.33 4.69 203.66 2.38 204 0 C220.5 0 237 0 254 0 C254 1.98 254 3.96 254 6 C253.443125 6.20753906 252.88625 6.41507812 252.3125 6.62890625 C251.549375 6.93699219 250.78625 7.24507813 250 7.5625 C248.88625 7.99755859 248.88625 7.99755859 247.75 8.44140625 C238.78429515 13.52282136 234.46718417 20.60298094 229.75 29.5625 C228.55931328 31.77322544 227.36666473 33.98289559 226.171875 36.19140625 C225.6572168 37.16279541 225.14255859 38.13418457 224.61230469 39.13500977 C224.08024414 40.08045654 223.54818359 41.02590332 223 42 C222.22829216 43.55119537 222.22829216 43.55119537 221.44099426 45.13372803 C219 48 219 48 215.12242126 48.73930359 C213.5257473 48.76525387 211.92833358 48.75821342 210.33178711 48.7253418 C209.02140724 48.73405807 209.02140724 48.73405807 207.68455505 48.74295044 C204.79814366 48.75575481 201.91362434 48.72703697 199.02734375 48.69921875 C197.02241757 48.70285151 195.01749479 48.70955135 193.0125885 48.7191925 C187.73470332 48.73827989 182.45747515 48.72421115 177.17962646 48.70068359 C168.72812037 48.66631688 160.27677669 48.67203373 151.82525826 48.6968174 C148.86968445 48.69919475 145.91471113 48.68135502 142.95921326 48.6615448 C141.15241492 48.66129674 139.34561635 48.6616939 137.53881836 48.6628418 C136.7143219 48.65198044 135.88982544 48.64111908 135.04034424 48.62992859 C130.88355496 48.5397373 130.88355496 48.5397373 127.28902531 50.33489704 C125.30393122 52.89914929 125.60789376 54.86315011 126 58 C126.97774326 59.81237636 126.97774326 59.81237636 129 61 C131.66729938 61.30953897 134.10638486 61.43750456 136.77612305 61.43237305 C137.56660034 61.4425647 138.35707764 61.45275635 139.17150879 61.46325684 C141.78498354 61.49345733 144.39809221 61.50266338 147.01171875 61.51171875 C148.82348353 61.52856024 150.63523659 61.54670976 152.44697571 61.56611633 C157.21611875 61.61368017 161.98521427 61.64344816 166.7545166 61.66955566 C171.6209451 61.69932904 176.48720975 61.7458704 181.35351562 61.79101562 C190.90225816 61.87712132 200.45103435 61.94443423 210 62 C209.69340454 62.90225815 209.38680908 63.8045163 209.07092285 64.7341156 C208.47596371 66.54850194 207.90252158 68.37185254 207.41833496 70.21888733 C205.77312018 76.2728402 203.34694633 81.45884604 198 85 C187.42371469 87.88930143 175.8379107 86.8907839 164.98059082 86.51428223 C160.04094596 86.36138441 155.09930835 86.32551531 150.15776825 86.27336979 C146.31795537 86.23085135 142.48112726 86.1706916 138.6427002 86.05699158 C137.9406546 86.03925186 137.23860901 86.02151215 136.51528931 86.00323486 C134.62023632 85.95419108 132.72544257 85.8954036 130.83068848 85.83592224 C127.86354519 85.69311888 127.86354519 85.69311888 126 88 C125.65509678 92.05261287 125.69836118 93.54754176 128 97 C130.33742225 97.4767085 130.33742225 97.4767085 133.09228516 97.43237305 C134.68370834 97.46206429 134.68370834 97.46206429 136.30728149 97.49235535 C137.45626923 97.49874527 138.60525696 97.50513519 139.7890625 97.51171875 C141.54940323 97.53864555 141.54940323 97.53864555 143.3453064 97.56611633 C147.10516736 97.62043422 150.86489985 97.65418448 154.625 97.6875 C157.1692888 97.72065403 159.71356059 97.75514187 162.2578125 97.79101562 C168.50509313 97.87617298 174.75238995 97.94443156 181 98 C177.88684412 101.19951606 174.77377941 103.61432672 171.01953125 106.046875 C169.84301916 106.81758653 168.66658957 107.58842402 167.49023438 108.359375 C165.66007755 109.55071959 163.82843869 110.73968963 161.99487305 111.92578125 C145.80056763 122.42497587 136.34843717 132.60150399 128.75 150.5625 C128.29326904 151.63097168 127.83653809 152.69944336 127.3659668 153.80029297 C126.40389045 156.05175167 125.44453752 158.30437589 124.48779297 160.55810547 C122.99018921 164.0226965 121.42768163 167.45121158 119.84765625 170.87890625 C111.38743413 188.61314612 111.38743413 188.61314612 112.875 207.65234375 C114.90018439 211.87850979 117.36413862 214.35016807 121.12939453 217.0690918 C124.43226164 219.91832861 125.57484126 221.71907695 125.96826172 226.07739258 C125.99516812 228.01629475 125.98021125 229.95610071 125.9296875 231.89453125 C125.93582062 232.92309738 125.94195374 233.95166351 125.94827271 235.01139832 C125.96115466 238.27970518 125.92026478 241.54452765 125.875 244.8125 C125.86155561 248.09749252 125.8592164 251.38214897 125.86599731 254.66716003 C125.86677994 256.707171 125.85388815 258.74724119 125.82614136 260.7870636 C125.82018951 261.70529404 125.81423767 262.62352448 125.80810547 263.56958008 C125.7972995 264.37897537 125.78649353 265.18837067 125.77536011 266.02229309 C125.81862915 268.23381893 125.81862915 268.23381893 128 270 C130.94179268 270.19882402 133.78947349 270.27265454 136.73242188 270.25878906 C137.6365834 270.2622937 138.54074493 270.26579834 139.4723053 270.26940918 C142.47119752 270.27823622 145.46985524 270.27237391 148.46875 270.265625 C150.54618373 270.26697137 152.62361716 270.26891167 154.7010498 270.27142334 C159.05903111 270.27437592 163.41693054 270.27007264 167.77490234 270.26074219 C173.37076077 270.24934761 178.96642737 270.25590636 184.56227875 270.26788712 C188.85326594 270.27510208 193.14420738 270.27281946 197.43519592 270.26763153 C199.49894737 270.26629403 201.56270293 270.26794625 203.62644958 270.27259064 C206.50693824 270.2776499 209.38711295 270.26995409 212.26757812 270.25878906 C213.55650719 270.26486176 213.55650719 270.26486176 214.87147522 270.27105713 C219.41155395 270.44026843 219.41155395 270.44026843 223 268 C223.41666667 264.5 223.41666667 264.5 223 261 C219.51664594 258.67776396 218.08654631 258.73127643 213.96801758 258.68115234 C212.10642754 258.65134781 212.10642754 258.65134781 210.20722961 258.62094116 C208.85299864 258.60906482 207.49876578 258.59740196 206.14453125 258.5859375 C204.75875188 258.56722683 203.37298391 258.54765348 201.98722839 258.5272522 C198.34260784 258.47591406 194.69795035 258.43629756 191.05316162 258.39910889 C187.33287403 258.35907964 183.61274034 258.30798241 179.89257812 258.2578125 C172.59515765 258.16103338 165.29766276 258.07663517 158 258 C160.2803161 255.64025631 162.37178912 254.09983472 165.2734375 252.546875 C166.0984375 252.09183594 166.9234375 251.63679687 167.7734375 251.16796875 C169.49524583 250.22950565 171.22178427 249.29966473 172.953125 248.37890625 C178.52772017 245.27901454 181.69054063 242.4749081 185 237 C187.10018553 239.06684925 188.9371863 241.17796897 190.75 243.5 C194.40392642 247.72568996 197.89415064 249.56876663 203.50390625 250.34765625 C209.09665349 250.65792246 212.77613806 249.84624662 217.75 247.25 C222.43215399 244.85882863 222.43215399 244.85882863 225.10546875 245.5234375 C226.9375 246.625 226.9375 246.625 230 249 C239.17273402 251.95894646 245.04178333 249.07191667 254 245 C254 266.12 254 287.24 254 309 C170.18 309 86.36 309 0 309 C0 207.03 0 105.06 0 0 Z " transform="translate(78,113)" style="fill: #EAEDEF;"/><path d="M0 0 C17.16592604 3.49137479 30.24667779 13.07158122 43.91601562 23.44091797 C54.49068996 31.3521024 63.98830324 35.39766065 77 38 C77 72.32 77 106.64 77 142 C63.3875 142.12375 63.3875 142.12375 49.5 142.25 C46.66986328 142.28641602 43.83972656 142.32283203 40.92382812 142.36035156 C13.52132615 142.56738477 -3.60195539 135.99816807 -25.015625 118.76953125 C-45.60792508 102.31004606 -67.13591741 89.84819185 -92.24755859 81.7878418 C-97.9809421 79.90720893 -102.80332767 78.29832673 -106.29296875 73.05859375 C-107.95559277 68.21769398 -107.7242293 62.85080822 -105.875 58.125 C-102.94260017 54.80161353 -100.33959171 52.26139836 -95.75805664 51.74951172 C-90.02390213 51.73252834 -85.33929787 52.36543141 -80 54.4375 C-78.84310669 54.87147095 -78.84310669 54.87147095 -77.6628418 55.31420898 C-67.3018825 59.40367561 -57.40946895 64.65234365 -47.53320312 69.78100586 C-35.4878708 75.99970975 -23.10044091 81.61464815 -9.75 84.375 C-9.00548584 84.53363525 -8.26097168 84.69227051 -7.49389648 84.85571289 C-1.46027104 86.06295863 4.89135049 87.15907709 11 86 C13.37851785 84.18113341 13.92508655 83.49942302 14.375 80.5 C13.92562882 77.50419211 13.33689945 76.85444071 11 75 C8.84508409 74.35468828 8.84508409 74.35468828 6.4140625 74.11328125 C5.49254395 73.98373047 4.57102539 73.85417969 3.62158203 73.72070312 C2.63270996 73.58599609 1.64383789 73.45128906 0.625 73.3125 C-7.88696334 71.99692863 -15.8136406 70.04741579 -23.875 67 C-24.77782715 66.66782471 -25.6806543 66.33564941 -26.61083984 65.9934082 C-32.69827353 63.58061182 -32.69827353 63.58061182 -33.92236328 61.22509766 C-34.03585301 57.97243911 -32.76671668 56.19072396 -31.125 53.3984375 C-30.47619873 52.28025635 -29.82739746 51.1620752 -29.15893555 50.01000977 C-28.43949063 48.79822092 -27.71984062 47.58655382 -27 46.375 C-26.27199144 45.12952664 -25.54519883 43.88334179 -24.81958008 42.63647461 C-23.31347286 40.05185591 -21.80100611 37.47112076 -20.28369141 34.89306641 C-18.0671338 31.12210406 -15.87852585 27.33555552 -13.69921875 23.54296875 C-13.35875519 22.95062439 -13.01829163 22.35828003 -12.66751099 21.74798584 C-12.16597 20.87524017 -12.16597 20.87524017 -11.65429688 19.98486328 C-9.77702997 16.71828837 -7.89612156 13.45386931 -6.01171875 10.19140625 C-5.50084717 9.30654541 -4.98997559 8.42168457 -4.46362305 7.51000977 C-2.9964288 4.99387565 -1.50396793 2.49429709 0 0 Z " transform="translate(343,211)" style="fill: #F5DBCC;"/><path d="M0 0 C0.65407333 -0.00029205 1.30814667 -0.00058411 1.98204041 -0.00088501 C4.13562464 0.00050402 6.2888593 0.0160447 8.44238281 0.03173828 C9.93882051 0.03546994 11.43526065 0.03831619 12.93170166 0.04031372 C16.86414372 0.04793818 20.79643728 0.0675764 24.7288208 0.08972168 C28.74399812 0.11020573 32.75919951 0.1193209 36.77441406 0.12939453 C44.64818001 0.15082348 52.52182542 0.18494502 60.39550781 0.22705078 C60.39550781 4.18705078 60.39550781 8.14705078 60.39550781 12.22705078 C57.6927063 12.24106934 57.6927063 12.24106934 54.93530273 12.25537109 C48.98392803 12.29088262 43.0329542 12.34466972 37.08185863 12.41095352 C33.47341777 12.45047443 29.86522259 12.48263977 26.2565918 12.49804688 C22.77442267 12.51318385 19.29292877 12.54757452 15.81105995 12.5953598 C13.83525971 12.61743243 11.8592692 12.61952707 9.88334656 12.62139893 C8.08181877 12.65097687 8.08181877 12.65097687 6.24389648 12.68115234 C4.6550489 12.69447601 4.6550489 12.69447601 3.03410339 12.70806885 C0.32397963 12.98183758 0.32397963 12.98183758 -1.24615836 14.91006893 C-2.91758147 17.76110373 -2.97841567 19.52305734 -2.97642899 22.81774235 C-2.98301883 23.9629268 -2.98960867 25.10811125 -2.99639821 26.28799826 C-2.98834181 27.54664063 -2.9802854 28.80528299 -2.97198486 30.10206604 C-2.97400884 31.45219242 -2.97734776 32.80231737 -2.98189044 34.15243763 C-2.99055218 37.86601339 -2.98046047 41.57933971 -2.9673481 45.29289377 C-2.95646517 49.29633194 -2.96286064 53.29974667 -2.96713257 57.30319214 C-2.97277129 65.14704235 -2.96244117 72.99079496 -2.94684461 80.83462853 C-2.92932597 89.963431 -2.92788579 99.09221441 -2.92722902 108.22103106 C-2.92554021 124.50520394 -2.90971586 140.78933229 -2.88574219 157.07348633 C-2.86247968 172.88599009 -2.84831702 188.6984656 -2.84472656 204.51098633 C-2.8445038 205.48498678 -2.84428103 206.45898723 -2.84405151 207.46250284 C-2.84360892 209.42455833 -2.84316689 211.38661381 -2.84272544 213.34866929 C-2.84250587 214.31646656 -2.84228631 215.28426382 -2.84206009 216.28138828 C-2.8418441 217.24669412 -2.84162812 218.21199996 -2.84140559 219.20655749 C-2.83770691 234.26063622 -2.82634738 249.31471037 -2.81392969 264.36878409 C-2.80949092 269.8307775 -2.8060541 275.29277047 -2.80330756 280.75476498 C-2.79887949 289.41722622 -2.79112161 298.07967058 -2.77653316 306.74212117 C-2.76991613 310.70191969 -2.76485863 314.66170329 -2.76407242 318.62150764 C-2.76328768 322.24279913 -2.7579026 325.86405285 -2.74875292 329.4853326 C-2.74504043 331.42350046 -2.74622786 333.36167576 -2.74755979 335.29984671 C-2.74371864 336.44242341 -2.7398775 337.58500012 -2.73591995 338.76220036 C-2.73467345 339.75224129 -2.73342696 340.74228222 -2.73214269 341.76232439 C-2.70730909 344.36316186 -2.70730909 344.36316186 -1.60449219 347.22705078 C33.50518802 347.31854216 68.61484416 347.38905684 103.72461842 347.4313121 C107.86662407 347.43631512 112.00862947 347.44149239 116.15063477 347.44677734 C116.97525751 347.44782659 117.79988026 347.44887583 118.64949157 347.44995686 C132.0138115 347.46737735 145.37806284 347.49892404 158.74234203 347.53566197 C172.44827264 347.57302574 186.15416725 347.59527695 199.8601467 347.60340476 C208.32221568 347.60890204 216.78409077 347.62628443 225.24610009 347.65871665 C231.04337711 347.67980827 236.84055343 347.68626303 242.63786606 347.68105629 C245.9862122 347.67848604 249.33394413 347.68467767 252.68227768 347.70387268 C256.30736607 347.72364308 259.93161083 347.71903668 263.55671692 347.70806885 C264.62188012 347.71972021 265.68704333 347.73137158 266.78448421 347.74337602 C267.75187453 347.73541182 268.71926486 347.72744763 269.71597004 347.7192421 C270.97189503 347.72152042 270.97189503 347.72152042 272.25319225 347.72384477 C274.55616302 347.39538608 274.55616302 347.39538608 276.16305846 345.38532615 C277.87294263 342.39096302 277.7955694 340.06049803 277.82788086 336.62255859 C277.83807251 335.96848526 277.84826416 335.31441193 277.85876465 334.64051819 C277.88886492 332.48698326 277.8981555 330.33389333 277.90722656 328.18017578 C277.92407555 326.68372116 277.9422261 325.18728068 277.96162415 323.69085693 C278.00910683 319.75852881 278.03892715 315.826258 278.06506348 311.89373779 C278.0948779 307.87842491 278.14140516 303.86330945 278.18652344 299.84814453 C278.27253677 291.97454365 278.33989057 284.10092476 278.39550781 276.22705078 C282.02550781 276.88705078 285.65550781 277.54705078 289.39550781 278.22705078 C289.51147978 287.90211084 289.60026236 297.57693078 289.65456867 307.25253487 C289.6806363 311.74559242 289.71598189 316.23817362 289.77270508 320.73095703 C289.827127 325.06873108 289.85694968 329.40604765 289.86989403 333.74413681 C289.87911574 335.39715652 289.89712411 337.05015186 289.9241581 338.70297623 C289.96058614 341.02290729 289.96544778 343.34096068 289.96313477 345.66113281 C289.97423782 346.98017609 289.98534088 348.29921936 289.9967804 349.65823364 C289.20582659 354.35289226 287.77457638 355.92748033 284.39550781 359.22705078 C281.46194936 360.2049036 279.58207245 360.3541216 276.52691078 360.35847855 C275.51731981 360.36231969 274.50772884 360.36616084 273.4675442 360.37011838 C272.35520926 360.3692519 271.24287433 360.36838542 270.09683228 360.36749268 C268.9176502 360.3704638 267.73846812 360.37343492 266.52355325 360.37649608 C263.24492115 360.38368368 259.96632094 360.38635596 256.68768215 360.38709354 C253.15385792 360.38894309 249.62004508 360.39648987 246.08622742 360.40322876 C238.35697858 360.4168161 230.62773492 360.42283727 222.89847612 360.42723942 C218.07397253 360.43000086 213.24947095 360.43423801 208.42496872 360.43874359 C195.07178434 360.45093621 181.71860158 360.46123591 168.36541176 360.46461868 C167.08324704 360.46494803 167.08324704 360.46494803 165.77518 360.46528403 C164.91834163 360.46550231 164.06150326 360.46572059 163.17870009 360.46594548 C161.44237558 360.46638895 159.70605107 360.46683551 157.96972656 360.46728516 C157.10844695 360.46750659 156.24716734 360.46772802 155.35978834 360.46795616 C141.39886891 360.47190555 127.43800163 360.48936392 113.47710235 360.51264468 C99.14955392 360.53634438 84.82203168 360.54881988 70.49446332 360.5499866 C62.44764133 360.55090408 54.40088731 360.55667477 46.35408401 360.57480621 C39.50316616 360.5901885 32.65233728 360.59533874 25.80140544 360.58706811 C22.30508806 360.58315508 18.80894995 360.58412281 15.3126545 360.59812546 C11.5243305 360.61075387 7.73647078 360.60501744 3.94815063 360.59454346 C2.84027714 360.60259986 1.73240365 360.61065627 0.59095824 360.6189568 C-8.93522339 360.55709668 -8.93522339 360.55709668 -12.60449219 357.22705078 C-14.70990875 353.90466808 -14.85652206 351.23804582 -14.86176109 347.3452158 C-14.86820999 346.13508023 -14.87465888 344.92494466 -14.88130319 343.67813832 C-14.87836085 342.33348522 -14.87522541 340.98883254 -14.87191772 339.6441803 C-14.87565337 338.21710816 -14.88025454 336.79003808 -14.88564837 335.36297125 C-14.89790425 331.43669377 -14.89761488 327.51050134 -14.89525962 323.58420908 C-14.89485211 319.35168363 -14.90588421 315.11918567 -14.91537476 310.88667297 C-14.93199936 302.59300058 -14.93748494 294.29935661 -14.93859951 286.00566895 C-14.93954919 279.26619519 -14.94365547 272.52673084 -14.95000076 265.78726006 C-14.96761632 246.68943137 -14.97683902 227.59162518 -14.97533982 208.49378831 C-14.9752599 207.46386307 -14.97517999 206.43393783 -14.97509766 205.37280273 C-14.97501589 204.34162358 -14.97493413 203.31044443 -14.97484989 202.24801742 C-14.97403666 185.52917345 -14.99318286 168.81041949 -15.02137439 152.09160156 C-15.05007733 134.93446607 -15.06391615 117.77737452 -15.06218684 100.6202144 C-15.06152209 90.98384738 -15.06705148 81.34757476 -15.08854294 71.71122932 C-15.1067206 63.50802998 -15.1111302 55.30496784 -15.09752409 47.10175712 C-15.0909774 42.91478789 -15.09093822 38.72808213 -15.10823059 34.5411377 C-15.12389155 30.70988147 -15.1211699 26.87909913 -15.10366233 23.04785495 C-15.10057696 21.6602749 -15.10428237 20.27266008 -15.11538248 18.885121 C-15.12945427 17.00170379 -15.11655418 15.11814251 -15.10227013 13.23472691 C-15.10270486 12.18772792 -15.1031396 11.14072894 -15.10358751 10.06200272 C-14.37006998 5.8954901 -12.18478923 3.34380068 -8.76727295 0.92874146 C-5.78347166 -0.03932039 -3.1363168 -0.01179066 0 0 Z " transform="translate(67.6044921875,86.77294921875)" style="fill: #827582;"/><path d="M0 0 C5.43905423 3.35384041 10.05265604 6.76156208 12.9765625 12.609375 C14.1981458 20.91816059 11.62873335 26.27803692 7.3515625 33.234375 C6.76616699 34.22655029 6.18077148 35.21872559 5.57763672 36.2409668 C4.34375547 38.32943965 3.1009131 40.41264162 1.84960938 42.49072266 C-0.53470717 46.46064699 -2.85933991 50.46371174 -5.18359375 54.46899414 C-6.92046495 57.45980524 -8.66634256 60.44520492 -10.4140625 63.4296875 C-14.18193412 69.87213028 -17.91920027 76.33200684 -21.6484375 82.796875 C-22.58828491 84.42532349 -22.58828491 84.42532349 -23.54711914 86.08666992 C-26.47591178 91.16724419 -29.39404316 96.2533484 -32.28515625 101.35546875 C-38.28546122 111.93968145 -44.46941407 122.35783835 -51.0234375 132.609375 C-56.78520965 130.91529913 -62.01960678 128.29689591 -67.3984375 125.671875 C-73.52717349 122.68150453 -79.59317455 119.89083832 -86.0234375 117.609375 C-84.6073869 113.82418768 -82.86922685 110.41188179 -80.85546875 106.91015625 C-80.21730225 105.79688965 -79.57913574 104.68362305 -78.92163086 103.53662109 C-78.22648216 102.33165818 -77.5312488 101.1267441 -76.8359375 99.921875 C-76.11375132 98.66502701 -75.3918316 97.40802588 -74.67016602 96.15087891 C-72.81600683 92.92300352 -70.95779797 89.69748151 -69.09802246 86.47283936 C-67.44951567 83.61412296 -65.80312062 80.75419046 -64.15625 77.89453125 C-61.06864574 72.53659391 -57.97622817 67.18144999 -54.88232422 61.82714844 C-52.3857262 57.50548284 -49.89165805 53.18236077 -47.39819336 48.85888672 C-46.15634423 46.70639135 -44.91367897 44.55436662 -43.67016602 42.40283203 C-40.75108935 37.35036263 -37.83956881 32.29398431 -34.95489502 27.22180176 C-33.93206118 25.42415241 -32.90682817 23.62789294 -31.88085938 21.83203125 C-30.59351014 19.57695052 -29.31068945 17.31927635 -28.03320312 15.05859375 C-21.57694553 3.77262743 -14.46495815 -6.6531332 0 0 Z " transform="translate(347.0234375,133.390625)" style="fill: #FDCE63;"/><path d="M0 0 C6.09243785 3.73006399 10.25912446 7.20117622 13.140625 13.84765625 C13.44484375 14.51667969 13.7490625 15.18570313 14.0625 15.875 C14.40804932 16.72723145 14.75359863 17.57946289 15.10961914 18.45751953 C16.94079258 21.26307451 16.94079258 21.26307451 20.70776367 21.53442383 C22.21485559 21.57551073 23.72283643 21.58971156 25.23046875 21.58203125 C26.02528152 21.59715256 26.8200943 21.61227386 27.63899231 21.62785339 C30.17628134 21.67082342 32.71238296 21.6795767 35.25 21.6875 C36.9707349 21.71063729 38.69144141 21.73600103 40.41210938 21.76367188 C44.62955695 21.83080925 48.84367248 21.85166812 53.0625 21.875 C53.0625 33.095 53.0625 44.315 53.0625 55.875 C11.1525 55.875 -30.7575 55.875 -73.9375 55.875 C-73.9375 44.655 -73.9375 33.435 -73.9375 21.875 C-71.37355469 21.82601562 -68.80960938 21.77703125 -66.16796875 21.7265625 C-63.68573146 21.67255781 -61.20359097 21.61524835 -58.72143555 21.55761719 C-56.99592292 21.51932655 -55.27033044 21.48447379 -53.54467773 21.453125 C-51.06465105 21.40747596 -48.58517409 21.34948219 -46.10546875 21.2890625 C-44.94751045 21.27173569 -44.94751045 21.27173569 -43.76615906 21.25405884 C-39.98503326 21.14978727 -38.15731165 21.0215411 -34.9375 18.875 C-33.95832225 16.69677253 -33.95832225 16.69677253 -33.1875 14.1875 C-30.73104528 7.69945928 -27.06708991 3.74399985 -21.14453125 0.20703125 C-14.89580118 -2.3883609 -6.38954541 -2.43964461 0 0 Z " transform="translate(214.9375,54.125)" style="fill: #E2A66E;"/><path d="M0 0 C0.84242752 -0.00807175 1.68485504 -0.01614349 2.55281067 -0.02445984 C4.33735098 -0.03828853 6.1219176 -0.04901612 7.90649414 -0.05688477 C9.72297976 -0.06838459 11.53943211 -0.08880471 13.35571289 -0.1184082 C15.98737436 -0.1612988 18.6180314 -0.17728505 21.25 -0.1875 C22.05237595 -0.20500809 22.85475189 -0.22251617 23.68144226 -0.24055481 C29.34262843 -0.21906005 33.89406792 0.73936399 38.45703125 4.23828125 C43.31055224 9.48875626 44.19044824 14.61719585 44.05078125 21.55859375 C44.05082153 22.42088593 44.05086182 23.2831781 44.05090332 24.17160034 C44.04557485 25.98182525 44.02810752 27.79205169 43.99902344 29.60205078 C43.95703511 32.36302723 43.95797376 35.12156922 43.96484375 37.8828125 C43.95435375 39.64975642 43.94141667 41.41668787 43.92578125 43.18359375 C43.92547913 44.41192429 43.92547913 44.41192429 43.9251709 45.66506958 C43.80709491 51.41275441 42.76829815 55.73265782 38.73828125 60.1015625 C38.15046875 60.57980469 37.56265625 61.05804688 36.95703125 61.55078125 C36.0753125 62.28748047 36.0753125 62.28748047 35.17578125 63.0390625 C29.5390264 66.97198009 20.6454094 65.5441784 14.00756836 65.58837891 C12.19103144 65.60490024 10.3745585 65.63213975 8.55834961 65.67041016 C5.9265808 65.72552322 3.29633274 65.74710641 0.6640625 65.76171875 C-0.13831345 65.78438812 -0.94068939 65.8070575 -1.76737976 65.83041382 C-7.79753665 65.80810924 -11.89289379 64.09536016 -16.54296875 60.23828125 C-20.99048871 54.53633259 -21.70731185 50.1414417 -21.74609375 43.09765625 C-21.75179382 42.29724915 -21.7574939 41.49684204 -21.7633667 40.67218018 C-21.77281017 38.97759317 -21.77934809 37.28298784 -21.78320312 35.58837891 C-21.79288075 33.01171242 -21.82389789 30.43585339 -21.85546875 27.859375 C-21.86200212 26.20964013 -21.86725128 24.55989958 -21.87109375 22.91015625 C-21.88344055 22.14636658 -21.89578735 21.3825769 -21.9085083 20.59564209 C-21.88430757 14.70446893 -20.82977778 9.84732247 -16.82421875 5.27734375 C-16.23640625 4.81070312 -15.64859375 4.3440625 -15.04296875 3.86328125 C-14.45515625 3.38117188 -13.86734375 2.8990625 -13.26171875 2.40234375 C-9.17943627 -0.36247484 -4.72963193 0.04300012 0 0 Z " transform="translate(128.54296875,326.76171875)" style="fill: #272524;"/><path d="M0 0 C1.76803792 -0.01651918 3.53601018 -0.04375587 5.30371094 -0.08203125 C7.8659901 -0.13716496 10.42670727 -0.15873043 12.98950195 -0.17333984 C14.1602552 -0.2073439 14.1602552 -0.2073439 15.35466003 -0.24203491 C21.3549149 -0.21924888 25.30631192 1.61246021 29.9777832 5.35009766 C34.74436789 10.60556283 35.15512652 14.08850362 35.21606445 21.01416016 C35.2241362 21.88019867 35.23220795 22.74623718 35.24052429 23.63851929 C35.25437116 25.47611487 35.26509061 27.31373624 35.27294922 29.15136719 C35.29008849 31.94337895 35.33395922 34.73418367 35.37817383 37.52587891 C35.38830748 39.31363064 35.39682147 41.10139242 35.40356445 42.88916016 C35.42107254 43.71654694 35.43858063 44.54393372 35.45661926 45.39639282 C35.43550589 51.12491287 34.53261495 55.73484797 30.9777832 60.35009766 C25.67761386 65.26468662 20.4484241 66.09007686 13.4387207 65.97900391 C12.55423248 65.98141586 11.66974426 65.98382782 10.75845337 65.98631287 C8.90117885 65.98533918 7.04387356 65.97206075 5.18676758 65.94702148 C2.35307974 65.91260126 -0.47750307 65.92641489 -3.3112793 65.94580078 C-5.12379248 65.93890419 -6.93629769 65.92923349 -8.7487793 65.91650391 C-9.5895401 65.92146378 -10.4303009 65.92642365 -11.29653931 65.93153381 C-16.67523535 65.82433347 -19.73995839 64.88979858 -24.0222168 61.35009766 C-29.28477423 55.64899377 -30.33581557 50.66161526 -30.3581543 43.04931641 C-30.3681395 41.8565081 -30.3681395 41.8565081 -30.37832642 40.63960266 C-30.38842399 38.96117454 -30.39314433 37.28270651 -30.39282227 35.60424805 C-30.39718536 33.05595563 -30.43350517 30.50941104 -30.47143555 27.96142578 C-30.47730664 26.32406186 -30.48127408 24.68668978 -30.4831543 23.04931641 C-30.49752533 22.29696213 -30.51189636 21.54460785 -30.52670288 20.76945496 C-30.47339731 14.49723882 -28.68293291 9.04514559 -24.20581055 4.51025391 C-23.62959961 4.14802734 -23.05338867 3.78580078 -22.4597168 3.41259766 C-21.5915332 2.8421875 -21.5915332 2.8421875 -20.70581055 2.26025391 C-14.63252758 -1.02298259 -6.74320794 0.04612232 0 0 Z " transform="translate(137.022216796875,239.64990234375)" style="fill: #262424;"/><path d="M0 0 C1.33590935 -0.01210762 1.33590935 -0.01210762 2.69880676 -0.02445984 C4.58767752 -0.03830585 6.47657336 -0.04902569 8.36547852 -0.05688477 C11.24088757 -0.07404778 14.11513186 -0.1179226 16.99023438 -0.16210938 C18.82681447 -0.17224083 20.66340434 -0.18075552 22.5 -0.1875 C23.35442184 -0.20500809 24.20884369 -0.22251617 25.0891571 -0.24055481 C31.75303922 -0.21660047 35.63501728 1.50444258 40.89453125 5.67578125 C44.53893451 10.4710487 44.38912606 15.51376329 44.3828125 21.265625 C44.38709763 22.13216202 44.39138275 22.99869904 44.39579773 23.89149475 C44.40152668 25.71956511 44.40205189 27.54765826 44.39770508 29.37573242 C44.39454574 32.16299561 44.41801957 34.94919605 44.44335938 37.73632812 C44.44563268 39.51692575 44.44633572 41.29752622 44.4453125 43.078125 C44.45452225 43.90642319 44.46373199 44.73472137 44.47322083 45.58811951 C44.42838272 51.23347961 43.53211663 55.55211993 39.58203125 59.8828125 C35.67708059 62.92338606 32.9168496 64.34307498 27.99707031 64.43115234 C27.17901917 64.44721527 26.36096802 64.4632782 25.51812744 64.47982788 C21.77739477 64.52449985 18.03683582 64.56534818 14.29589844 64.58837891 C12.32702805 64.60492131 10.3582173 64.63218869 8.38964844 64.67041016 C5.54200276 64.72537478 2.69576204 64.74708303 -0.15234375 64.76171875 C-1.02550232 64.78438812 -1.89866089 64.8070575 -2.79827881 64.83041382 C-7.92093716 64.81283771 -11.43350213 64.14680914 -15.43901062 60.83070374 C-20.42933087 55.45753055 -21.52123415 49.72694626 -21.4140625 42.609375 C-21.41551773 41.81604263 -21.41697296 41.02271027 -21.41847229 40.20533752 C-21.41682368 38.54058125 -21.40537984 36.87580806 -21.38452148 35.21118164 C-21.3555003 32.67853445 -21.36394708 30.14797758 -21.37695312 27.61523438 C-21.37071602 25.98827119 -21.36232529 24.36131454 -21.3515625 22.734375 C-21.35596596 21.6122184 -21.35596596 21.6122184 -21.36045837 20.46739197 C-21.25730913 14.65766152 -20.15919654 9.74406377 -16.1640625 5.27734375 C-15.56722656 4.81070313 -14.97039062 4.3440625 -14.35546875 3.86328125 C-13.75605469 3.38117188 -13.15664062 2.8990625 -12.5390625 2.40234375 C-8.61766227 -0.41350509 -4.65518573 0.0397754 0 0 Z " transform="translate(127.91796875,153.76171875)" style="fill: #252323;"/><path d="M0 0 C5.445 0.99 5.445 0.99 11 2 C11.11597197 11.67506006 11.20475455 21.34988 11.25906086 31.02548409 C11.28512848 35.51854164 11.32047407 40.01112284 11.37719727 44.50390625 C11.43161919 48.8416803 11.46144186 53.17899687 11.47438622 57.51708603 C11.48360793 59.17010574 11.5016163 60.82310108 11.52865028 62.47592545 C11.56507833 64.7958565 11.56993996 67.1139099 11.56762695 69.43408203 C11.57873001 70.75312531 11.58983307 72.07216858 11.60127258 73.43118286 C10.81031877 78.12584148 9.37906857 79.70042955 6 83 C2.70265354 84.09911549 0.27041255 84.1139456 -3.19921875 84.09765625 C-5.01196289 84.09282227 -5.01196289 84.09282227 -6.86132812 84.08789062 C-8.7552832 84.07532227 -8.7552832 84.07532227 -10.6875 84.0625 C-12.59885742 84.05573242 -12.59885742 84.05573242 -14.54882812 84.04882812 C-17.69926564 84.03702873 -20.84960949 84.02056597 -24 84 C-24 80.37 -24 76.74 -24 73 C-107.16 73 -190.32 73 -276 73 C-276 72.67 -276 72.34 -276 72 C-275.42559541 71.99940291 -274.85119083 71.99880582 -274.25938004 71.99819064 C-240.23939719 71.96232137 -206.21951709 71.90572052 -172.19961847 71.82207905 C-168.11769848 71.81206121 -164.03577809 71.80221715 -159.95385742 71.79248047 C-158.73486699 71.78956841 -158.73486699 71.78956841 -157.49125049 71.78659752 C-144.32096689 71.7555496 -131.15070073 71.73858909 -117.98038741 71.72680578 C-104.47328482 71.71440865 -90.96627398 71.68693991 -77.45922929 71.64538693 C-69.12004485 71.62021017 -60.78101248 71.60688575 -52.44178949 71.60857043 C-46.72856138 71.60860011 -41.01548855 71.59403223 -35.30232092 71.56783572 C-32.00267377 71.55314165 -28.70341095 71.54718593 -25.40372849 71.55419731 C-21.831119 71.56078012 -18.25945009 71.54305324 -14.68693542 71.51898193 C-13.63733601 71.52674235 -12.5877366 71.53450277 -11.50633115 71.54249835 C-10.5528744 71.53105076 -9.59941766 71.51960317 -8.61706829 71.50780869 C-7.37936987 71.50553036 -7.37936987 71.50553036 -6.11666745 71.50320601 C-3.83713592 71.16363751 -3.83713592 71.16363751 -2.2363537 69.15729928 C-0.52071116 66.16369445 -0.59995738 63.83546561 -0.56762695 60.39550781 C-0.5574353 59.74143448 -0.54724365 59.08736115 -0.53674316 58.41346741 C-0.50664289 56.25993247 -0.49735231 54.10684254 -0.48828125 51.953125 C-0.47143226 50.45667038 -0.45328172 48.9602299 -0.43388367 47.46380615 C-0.38640098 43.53147803 -0.35658067 39.59920722 -0.33044434 35.66668701 C-0.30062992 31.65137413 -0.25410266 27.63625867 -0.20898438 23.62109375 C-0.12297104 15.74749287 -0.05561724 7.87387398 0 0 Z " transform="translate(346,363)" style="fill: #685E68;"/><path d="M0 0 C0.72711182 0.00404846 1.45422363 0.00809692 2.20336914 0.01226807 C2.95046143 0.01035461 3.69755371 0.00844116 4.46728516 0.00646973 C6.04761085 0.00510809 7.62794772 0.00880307 9.20825195 0.01715088 C11.63135836 0.02785107 14.05372337 0.01725527 16.47680664 0.00445557 C18.01066245 0.00577717 19.54451779 0.00833957 21.07836914 0.01226807 C21.80548096 0.0082196 22.53259277 0.00417114 23.28173828 0 C28.41094553 0.04796946 28.41094553 0.04796946 30.64086914 2.27789307 C30.85265796 4.83517246 30.94485783 7.2815262 30.94165039 9.84039307 C30.94593552 10.58748535 30.95022064 11.33457764 30.95463562 12.10430908 C30.96038127 13.68462103 30.96087744 15.26495943 30.95654297 16.84527588 C30.95338129 19.26858394 30.97684322 21.69067342 31.00219727 24.11383057 C31.00447001 25.64768319 31.00517387 27.1815391 31.00415039 28.71539307 C31.01336014 29.44250488 31.02256989 30.1696167 31.03205872 30.91876221 C31.01318359 32.96148682 31.01318359 32.96148682 30.64086914 36.27789307 C27.02572113 38.68799174 24.37569271 38.56766871 20.19946289 38.54351807 C19.11424095 38.54638824 19.11424095 38.54638824 18.00709534 38.54931641 C16.47982434 38.55067591 14.95254169 38.54699581 13.42529297 38.53863525 C11.08347757 38.52791645 8.74242656 38.53854598 6.40063477 38.55133057 C4.91690911 38.55000923 3.43318393 38.54744738 1.94946289 38.54351807 C1.24736191 38.54756653 0.54526093 38.55161499 -0.17811584 38.55578613 C-5.12919533 38.5078286 -5.12919533 38.5078286 -7.35913086 36.27789307 C-7.55870056 33.72038854 -7.63899912 31.27351166 -7.62475586 28.71539307 C-7.62666931 27.96830078 -7.62858276 27.2212085 -7.6305542 26.45147705 C-7.63191584 24.87115136 -7.62822085 23.29081448 -7.61987305 21.71051025 C-7.60917286 19.28740385 -7.61976865 16.86503883 -7.63256836 14.44195557 C-7.63124676 12.90809976 -7.62868436 11.37424441 -7.62475586 9.84039307 C-7.62880432 9.11328125 -7.63285278 8.38616943 -7.63702393 7.63702393 C-7.57758434 1.28135628 -6.35566764 0.05943958 0 0 Z " transform="translate(128.359130859375,253.72210693359375)" style="fill: #6AF4C1;"/><path d="M0 0 C0.70210098 0.00404846 1.40420197 0.00809692 2.12757874 0.01226807 C3.21136559 0.00939789 3.21136559 0.00939789 4.31704712 0.00646973 C5.84609831 0.00510803 7.37516106 0.00880342 8.90419006 0.01715088 C11.24389182 0.02783556 13.58282305 0.01726357 15.92250061 0.00445557 C17.40752835 0.00577747 18.8925556 0.0083405 20.37757874 0.01226807 C21.07765549 0.0082196 21.77773224 0.00417114 22.49902344 0 C26.16271794 0.03531652 27.68405064 0.18793684 30.81898499 2.27789307 C31.11100223 4.87904863 31.21521849 7.23880458 31.18226624 9.84039307 C31.18301399 10.96103149 31.18301399 10.96103149 31.18377686 12.10430908 C31.18143522 13.68465839 31.17170129 15.26501134 31.15516663 16.84527588 C31.13157676 19.26846558 31.13460408 21.69055528 31.14125061 24.11383057 C31.13567385 25.64769131 31.12856397 27.18154741 31.11976624 28.71539307 C31.12113335 29.80606079 31.12113335 29.80606079 31.12252808 30.91876221 C31.05001482 36.04686324 31.05001482 36.04686324 28.81898499 38.27789307 C26.26148046 38.47746277 23.81460358 38.55776133 21.25648499 38.54351807 C20.13584656 38.54638824 20.13584656 38.54638824 18.99256897 38.54931641 C17.41224328 38.55067804 15.8319064 38.54698306 14.25160217 38.53863525 C11.82849576 38.52793507 9.40613075 38.53853086 6.98304749 38.55133057 C5.44919168 38.55000897 3.91533633 38.54744657 2.38148499 38.54351807 C1.65437317 38.54756653 0.92726135 38.55161499 0.17811584 38.55578613 C-4.95109141 38.50781667 -4.95109141 38.50781667 -7.18101501 36.27789307 C-7.38058471 33.72038854 -7.46088328 31.27351166 -7.44664001 28.71539307 C-7.44855347 27.96830078 -7.45046692 27.2212085 -7.45243835 26.45147705 C-7.45379999 24.87115136 -7.45010501 23.29081448 -7.4417572 21.71051025 C-7.43105701 19.28740385 -7.44165281 16.86503883 -7.45445251 14.44195557 C-7.45313092 12.90809976 -7.45056851 11.37424441 -7.44664001 9.84039307 C-7.45068848 9.11328125 -7.45473694 8.38616943 -7.45890808 7.63702393 C-7.40061348 1.40378574 -6.27401774 0.06077189 0 0 Z " transform="translate(128.18101501464844,166.72210693359375)" style="fill: #89C8FD;"/><path d="M0 0 C0.70210098 0.00091141 1.40420197 0.00182281 2.12757874 0.00276184 C2.8501033 -0.00152328 3.57262787 -0.00580841 4.31704712 -0.01022339 C5.8460841 -0.01596928 7.37514843 -0.01646503 8.90419006 -0.01213074 C11.24410172 -0.00897362 13.58274565 -0.03241449 15.92250061 -0.05778503 C17.40752505 -0.0600583 18.8925529 -0.0607614 20.37757874 -0.05973816 C21.07765549 -0.06894791 21.77773224 -0.07815765 22.49902344 -0.08764648 C25.21717822 -0.0617585 27.34903103 0.04765565 29.7613678 1.36116028 C31.40353429 4.37710595 31.22628219 7.3990872 31.18226624 10.74494934 C31.18301399 11.83017128 31.18301399 11.83017128 31.18377686 12.93731689 C31.18143888 14.46461234 31.17172651 15.99191181 31.15516663 17.51911926 C31.13153566 19.86102082 31.1346119 22.20178669 31.14125061 24.54377747 C31.13567497 26.02750823 31.12856581 27.51123419 31.11976624 28.99494934 C31.12113335 30.04810081 31.12113335 30.04810081 31.12252808 31.12252808 C31.0500335 36.07249458 31.0500335 36.07249458 28.81898499 38.30354309 C26.16606741 38.47864695 23.61912325 38.53509792 20.96742249 38.49885559 C20.19339081 38.4960257 19.41935913 38.4931958 18.62187195 38.49028015 C16.14575342 38.47907063 13.66999448 38.45396512 11.19398499 38.42854309 C9.51690687 38.41851427 7.83982309 38.40938825 6.16273499 38.40119934 C2.04801276 38.37912883 -2.06644013 38.34459411 -6.18101501 38.30354309 C-7.70365611 35.2582609 -7.34387039 32.08209063 -7.34898376 28.74104309 C-7.35231216 27.99395081 -7.35564056 27.24685852 -7.35906982 26.47712708 C-7.36413468 24.89681108 -7.36647829 23.31648438 -7.36631775 21.73616028 C-7.36850635 19.31313066 -7.38667202 16.89055474 -7.40562439 14.46760559 C-7.40855793 12.93375299 -7.41054299 11.39989821 -7.41148376 9.86604309 C-7.41866928 9.13893127 -7.4258548 8.41181946 -7.43325806 7.66267395 C-7.4047979 1.42696599 -6.27195996 0.09185579 0 0 Z " transform="translate(128.18101501464844,339.6964569091797)" style="fill: #FEE076;"/><path d="M0 0 C4.29 0 8.58 0 13 0 C13 33.99 13 67.98 13 103 C8.71 103 4.42 103 0 103 C0 69.01 0 35.02 0 0 Z " transform="translate(434,250)" style="fill: #D0D0D5;"/><path d="M0 0 C3.25530178 0.47450162 6.10664488 1.3441482 9.125 2.625 C15.21181344 5.13187909 21.39063311 7.37257609 27.57470703 9.62548828 C28.77522705 10.06417236 28.77522705 10.06417236 30 10.51171875 C30.721875 10.77428467 31.44375 11.03685059 32.1875 11.30737305 C34 12 34 12 36 13 C34.0481697 19.34664917 30.96642798 24.67102052 27.625 30.375 C26.75875 31.90833984 26.75875 31.90833984 25.875 33.47265625 C25.31039062 34.43816406 24.74578125 35.40367187 24.1640625 36.3984375 C23.65311035 37.28192871 23.1421582 38.16541992 22.61572266 39.07568359 C21.81593994 40.02822021 21.81593994 40.02822021 21 41 C17.12693246 41 16.23770574 40.85078736 13.09375 39.05859375 C12.35495605 38.64270996 11.61616211 38.22682617 10.85498047 37.79833984 C10.07783691 37.3492627 9.30069336 36.90018555 8.5 36.4375 C7.70352051 35.98584473 6.90704102 35.53418945 6.08642578 35.06884766 C3.7185011 33.72236196 1.35808459 32.36363214 -1 31 C-1.66418945 30.6169873 -2.32837891 30.23397461 -3.01269531 29.83935547 C-6.35232936 27.91059709 -9.68158231 25.96502381 -13 24 C-11.20469881 18.95263894 -8.55008635 14.40609448 -5.9375 9.75 C-5.47794922 8.92242187 -5.01839844 8.09484375 -4.54492188 7.2421875 C-1.13705937 1.13705937 -1.13705937 1.13705937 0 0 Z " transform="translate(232,300)" style="fill: #FCCD62;"/><path d="M0 0 C8.63201819 -0.09281853 17.26386369 -0.16382466 25.89627266 -0.20724869 C29.90498652 -0.2280937 33.91335811 -0.25635406 37.921875 -0.30175781 C41.79279809 -0.34532699 45.66339265 -0.36916032 49.53454208 -0.37950897 C51.00891158 -0.3868806 52.48326378 -0.40127592 53.95749283 -0.42292023 C56.02820459 -0.45210357 58.0975716 -0.4559501 60.16845703 -0.45410156 C61.93384323 -0.46742523 61.93384323 -0.46742523 63.7348938 -0.48101807 C67.73056584 0.10762755 69.86750444 1.4931957 73 4 C75.45286296 7.67929445 75.23228878 9.47377907 75.1953125 13.85546875 C75.1924826 14.51710526 75.18965271 15.17874176 75.18673706 15.86042786 C75.17555918 17.96963737 75.15045981 20.07841925 75.125 22.1875 C75.11496707 23.61913448 75.10584176 25.05077564 75.09765625 26.48242188 C75.07562795 29.98841977 75.04111485 33.49416813 75 37 C70.96904293 35.39875626 66.98231466 33.71786123 63 32 C62.94392578 30.31970703 62.94392578 30.31970703 62.88671875 28.60546875 C62.82105743 27.1327791 62.75461014 25.66012434 62.6875 24.1875 C62.65366211 23.08051758 62.65366211 23.08051758 62.61914062 21.95117188 C62.47861346 17.89694413 62.47861346 17.89694413 60.82780457 14.28996277 C58.2563806 12.4751948 56.37620212 12.60102561 53.2434082 12.56762695 C52.06241043 12.54783279 50.88141266 12.52803864 49.66462708 12.50764465 C48.38955795 12.50125473 47.11448883 12.49486481 45.80078125 12.48828125 C43.84279854 12.46135445 43.84279854 12.46135445 41.84526062 12.43388367 C38.37817404 12.38636947 34.91115259 12.35656978 31.44384766 12.33044434 C27.90449152 12.30064563 24.36535987 12.25411304 20.82617188 12.20898438 C13.88422728 12.12293537 6.94224208 12.05714429 0 12 C0 8.04 0 4.08 0 0 Z " transform="translate(282,87)" style="fill: #665C66;"/><path d="M0 0 C0 21.12 0 42.24 0 64 C-83.82 64 -167.64 64 -254 64 C-254 63.67 -254 63.34 -254 63 C-173.48 63 -92.96 63 -10 63 C-10.33 43.86 -10.66 24.72 -11 5 C-1 0 -1 0 0 0 Z " transform="translate(332,358)" style="fill: #CACACE;"/><path d="M0 0 C3.21204697 3.07239275 4.1984206 5.00522568 4.4140625 9.4609375 C4.33328071 15.90270861 1.68260899 20.24554542 -1.625 25.625 C-2.21039551 26.61717529 -2.79579102 27.60935059 -3.39892578 28.6315918 C-4.63280703 30.72006465 -5.8756494 32.80326662 -7.12695312 34.88134766 C-9.51126967 38.85127199 -11.83590241 42.85433674 -14.16015625 46.85961914 C-15.89702745 49.85043024 -17.64290506 52.83582992 -19.390625 55.8203125 C-23.15849662 62.26275528 -26.89576277 68.72263184 -30.625 75.1875 C-31.56484741 76.81594849 -31.56484741 76.81594849 -32.52368164 78.47729492 C-35.45247428 83.55786919 -38.37060566 88.6439734 -41.26171875 93.74609375 C-47.26202372 104.33030645 -53.44597657 114.74846335 -60 125 C-61.98 124.34 -63.96 123.68 -66 123 C-65.58492188 122.27941406 -65.16984375 121.55882812 -64.7421875 120.81640625 C-60.83053868 113.99966259 -56.96737848 107.15818823 -53.14135742 100.29296875 C-46.74406898 88.8194076 -40.21130061 77.43552786 -33.5703125 66.1015625 C-28.57126032 57.56922109 -23.62344292 49.00764401 -18.703125 40.4296875 C-16.24470136 36.14496922 -13.75252242 31.88267861 -11.234375 27.6328125 C-10.0518451 25.60951422 -8.86954341 23.58608254 -7.6875 21.5625 C-7.142146 20.65814209 -6.59679199 19.75378418 -6.03491211 18.82202148 C-2.4698665 12.66504658 -0.82447241 7.06266958 0 0 Z " transform="translate(356,141)" style="fill: #FAC038;"/><path d="M0 0 C0.66 0.33 1.32 0.66 2 1 C0.56351784 3.77433341 -0.93109052 6.51309651 -2.4375 9.25 C-3.03981445 10.41595703 -3.03981445 10.41595703 -3.65429688 11.60546875 C-7.0741676 17.71424546 -10.52791889 19.68875904 -17 22 C-23.28168538 25.57193875 -28.86991381 30.8964544 -31.5390625 37.7734375 C-32.6528946 43.15381288 -33.29384759 50.63904273 -31.29492188 55.83154297 C-30.83772733 59.19313397 -32.37386756 61.02802913 -34.078125 63.90234375 C-34.74457031 65.03994141 -35.41101563 66.17753906 -36.09765625 67.34960938 C-36.81483918 68.54573184 -37.53228957 69.74169398 -38.25 70.9375 C-38.95295195 72.12889185 -39.65478763 73.32094309 -40.35546875 74.51367188 C-43.20863648 79.3593909 -46.10562761 84.1788184 -49 89 C-51.85525196 86.26888943 -52.9258699 84.92264341 -53.25219727 80.86108398 C-52.9679983 76.51006117 -51.73027452 73.13968308 -49.96484375 69.22265625 C-49.64850479 68.49364609 -49.33216583 67.76463593 -49.00624084 67.01353455 C-47.99518634 64.69112043 -46.96678669 62.37688247 -45.9375 60.0625 C-45.27291964 58.54413088 -44.6094987 57.02525373 -43.94726562 55.50585938 C-42.63030944 52.48919602 -41.30389853 49.47696854 -39.9699707 46.46777344 C-38.64926697 43.4844006 -37.34947744 40.49322343 -36.06713867 37.49316406 C-35.75712418 36.77172714 -35.44710968 36.05029022 -35.12770081 35.30699158 C-34.54706975 33.95392271 -33.97029779 32.59918803 -33.39830017 31.2424469 C-28.24945118 19.2924439 -19.48773105 12.93054269 -9 6 C-8.04222656 5.35289062 -7.08445313 4.70578125 -6.09765625 4.0390625 C-4.07447248 2.67748859 -2.04390795 1.33016232 0 0 Z " transform="translate(255,230)" style="fill: #EED5C6;"/><path d="M0 0 C1.3986139 0.49762411 2.78909235 1.01853565 4.171875 1.55859375 C5.32683472 1.99377319 5.32683472 1.99377319 6.50512695 2.43774414 C19.71651366 7.64653006 32.31609242 14.48927616 44.921875 20.99609375 C44.261875 21.32609375 43.601875 21.65609375 42.921875 21.99609375 C42.426875 23.48109375 42.426875 23.48109375 41.921875 24.99609375 C39.18789518 26.45421632 37.94555194 26.95773636 34.921875 26.99609375 C32.40649414 26.19067383 32.40649414 26.19067383 29.58203125 24.953125 C27.99225464 24.26114014 27.99225464 24.26114014 26.37036133 23.55517578 C22.80149309 21.94166834 19.24128531 20.3104436 15.6875 18.6640625 C15.07288406 18.37995514 14.45826813 18.09584778 13.82502747 17.8031311 C13.20601059 17.51682831 12.58699371 17.23052551 11.94921875 16.93554688 C11.01698486 16.50447632 11.01698486 16.50447632 10.06591797 16.06469727 C8.79390339 15.47295963 7.52406165 14.87653055 6.25634766 14.27563477 C-4.85018962 8.82147345 -4.85018962 8.82147345 -16.828125 9.87109375 C-17.570625 10.24234375 -18.313125 10.61359375 -19.078125 10.99609375 C-20.2228125 11.55296875 -20.2228125 11.55296875 -21.390625 12.12109375 C-21.9475 12.40984375 -22.504375 12.69859375 -23.078125 12.99609375 C-22.83806281 5.91425908 -22.83806281 5.91425908 -20.74609375 3.38671875 C-14.42994758 -1.83831701 -7.80442037 -2.32773633 0 0 Z " transform="translate(259.078125,264.00390625)" style="fill: #EEC8BA;"/><path d="M0 0 C1.66991953 0.65847626 3.33590664 1.32693574 5 2 C5.81082031 2.31195313 6.62164062 2.62390625 7.45703125 2.9453125 C10.30073313 4.3695214 11.99722397 5.50182271 14 8 C14.57792212 10.86864968 14.86294559 13.12714147 14.875 16 C14.88249268 16.68852051 14.88998535 17.37704102 14.89770508 18.08642578 C14.64117324 23.70858016 12.94671666 26.27635863 9 30 C6.9375 30.76171875 6.9375 30.76171875 5 30.6875 C4.0409375 30.69330078 4.0409375 30.69330078 3.0625 30.69921875 C-0.35008749 29.54229989 -1.83323558 27.85568439 -4 25 C-4.6934394 22.01747678 -4.65512608 19.17415036 -4.5625 16.125 C-4.57345703 15.34769531 -4.58441406 14.57039063 -4.59570312 13.76953125 C-4.52408951 8.08818411 -3.15834455 4.70926126 0 0 Z " transform="translate(280,320)" style="fill: #F3D9CA;"/><path d="M0 0 C12.87 0 25.74 0 39 0 C39 3.63 39 7.26 39 11 C26.13 11 13.26 11 0 11 C0 7.37 0 3.74 0 0 Z " transform="translate(283,88)" style="fill: #837683;"/><path d="M0 0 C6.75112444 2.25037481 6.75112444 2.25037481 9.76171875 4.09375 C10.40560547 4.48433594 11.04949219 4.87492187 11.71289062 5.27734375 C12.36451172 5.68082031 13.01613281 6.08429688 13.6875 6.5 C14.35072266 6.90347656 15.01394531 7.30695313 15.69726562 7.72265625 C18.50030417 9.43327192 21.2675324 11.17835494 24 13 C24 13.66 24 14.32 24 15 C21.12619779 16.60631936 18.25074523 18.20966215 15.375 19.8125 C14.56675781 20.26431641 13.75851563 20.71613281 12.92578125 21.18164062 C12.13300781 21.62314453 11.34023437 22.06464844 10.5234375 22.51953125 C9.80075684 22.92276611 9.07807617 23.32600098 8.33349609 23.74145508 C5.58785938 25.22228342 2.790179 26.6049105 0 28 C0 18.76 0 9.52 0 0 Z " transform="translate(216,338)" style="fill: #817481;"/><path d="M0 0 C11.22 0 22.44 0 34 0 C34 0.33 34 0.66 34 1 C23.11 1 12.22 1 1 1 C1 11.56 1 22.12 1 33 C16.59428837 32.89204622 32.18853087 32.78005921 47.78273487 32.66066074 C55.02319028 32.60535363 62.26365062 32.55187575 69.50415039 32.50268555 C75.81405737 32.45981294 82.12392843 32.41352717 88.4337799 32.36312145 C91.77560811 32.3365453 95.11742931 32.31169285 98.45929909 32.29092598 C102.18751632 32.26690097 105.91563852 32.23684361 109.64379883 32.20532227 C111.31075302 32.19668907 111.31075302 32.19668907 113.01138306 32.18788147 C114.02520554 32.17809265 115.03902802 32.16830383 116.08357239 32.15821838 C116.96572827 32.15176583 117.84788416 32.14531328 118.75677204 32.1386652 C121.17067972 32.08593685 121.17067972 32.08593685 124 31 C125.07955212 27.76134365 125.20441741 25.20844162 125.31640625 21.80078125 C125.35451416 20.71192627 125.39262207 19.62307129 125.43188477 18.5012207 C125.47498779 17.11894287 125.51809082 15.73666504 125.5625 14.3125 C125.706875 9.919375 125.85125 5.52625 126 1 C115.44 1 104.88 1 94 1 C94 0.67 94 0.34 94 0 C104.89 0 115.78 0 127 0 C127 11.22 127 22.44 127 34 C85.09 34 43.18 34 0 34 C0 22.78 0 11.56 0 0 Z " transform="translate(141,76)" style="fill: #BD8859;"/><path d="M0 0 C3.32274404 2.45594125 4.77618008 3.9256644 5.625 8 C4.76936783 12.10703441 3.38121991 13.55401113 0 16 C-3.95779649 16.62491523 -6.00863886 16.61006839 -9.4375 14.5 C-11.33241448 11.46813683 -11.64036692 9.43919544 -11.44921875 5.90625 C-11 4 -11 4 -8.875 1.5 C-5.46714413 -0.27801176 -3.78454468 -0.70960213 0 0 Z " transform="translate(208,63)" style="fill: #282423;"/><path d="M0 0 C9 5 9 5 10 6 C10.2084019 8.58120637 10.32462915 11.10255934 10.375 13.6875 C10.41238281 14.39583984 10.44976562 15.10417969 10.48828125 15.83398438 C10.55411157 19.79477529 10.17569917 22.32626991 7.7265625 25.51953125 C5 28 5 28 1 28 C0.67 18.76 0.34 9.52 0 0 Z " transform="translate(284,322)" style="fill: #EAC5B7;"/><path d="M0 0 C1.65 0.66 3.3 1.32 5 2 C3.0481697 8.34664917 -0.03357202 13.67102052 -3.375 19.375 C-3.9525 20.39722656 -4.53 21.41945313 -5.125 22.47265625 C-5.68960937 23.43816406 -6.25421875 24.40367187 -6.8359375 25.3984375 C-7.60236572 26.72367432 -7.60236572 26.72367432 -8.38427734 28.07568359 C-8.91746582 28.71070801 -9.4506543 29.34573242 -10 30 C-14 30 -14 30 -16 29 C-14.61022737 25.30897778 -12.9403208 21.9452522 -10.99609375 18.515625 C-10.42052734 17.49855469 -9.84496094 16.48148437 -9.25195312 15.43359375 C-8.35379883 13.85771484 -8.35379883 13.85771484 -7.4375 12.25 C-6.83486328 11.18394531 -6.23222656 10.11789062 -5.61132812 9.01953125 C-1.13900267 1.13900267 -1.13900267 1.13900267 0 0 Z " transform="translate(263,311)" style="fill: #FABF38;"/><path d="M0 0 C4.64473982 -0.07416067 9.28913499 -0.12860615 13.93432617 -0.16479492 C15.51446536 -0.17988094 17.09456269 -0.2003525 18.67456055 -0.22631836 C20.94590585 -0.26271126 23.21669759 -0.27972762 25.48828125 -0.29296875 C26.54780754 -0.31619453 26.54780754 -0.31619453 27.6287384 -0.33988953 C30.36685077 -0.34082893 32.51161369 -0.26422104 34.94677734 1.05322266 C36.58064861 4.07327121 36.40730354 7.0950625 36.36328125 10.44140625 C36.36402901 11.52662819 36.36402901 11.52662819 36.36479187 12.6337738 C36.36245389 14.16106925 36.35274153 15.68836872 36.33618164 17.21557617 C36.31255068 19.55747773 36.31562691 21.8982436 36.32226562 24.24023438 C36.31668999 25.72396514 36.30958082 27.2076911 36.30078125 28.69140625 C36.30214836 29.74455772 36.30214836 29.74455772 36.30354309 30.81898499 C36.23104851 35.76895149 36.23104851 35.76895149 34 38 C33.01 38 32.02 38 31 38 C31 25.79 31 13.58 31 1 C20.77 1 10.54 1 0 1 C0 0.67 0 0.34 0 0 Z " transform="translate(123,340)" style="fill: #D6B159;"/><path d="M0 0 C4 1 4 1 5 2 C5.12564659 4.49751162 5.188622 6.96591165 5.203125 9.46484375 C5.20882507 10.21335098 5.21452515 10.96185822 5.22039795 11.73304749 C5.22986035 13.31933167 5.23638684 14.90563562 5.24023438 16.49194336 C5.24994614 18.92401239 5.28095887 21.35523871 5.3125 23.78710938 C5.31902915 25.32551579 5.32427997 26.86392828 5.328125 28.40234375 C5.3404718 29.13259262 5.3528186 29.86284149 5.36553955 30.61521912 C5.35644531 32.66772461 5.35644531 32.66772461 5 36 C1.35695136 38.42869909 -1.30722339 38.25675675 -5.51171875 38.1953125 C-6.23994339 38.1924826 -6.96816803 38.18965271 -7.71846008 38.18673706 C-10.04164137 38.17555257 -12.36443547 38.15045166 -14.6875 38.125 C-16.2636663 38.11496794 -17.83983865 38.10584248 -19.41601562 38.09765625 C-23.27749267 38.07561896 -27.13868071 38.04110141 -31 38 C-31 37.67 -31 37.34 -31 37 C-20.77 37 -10.54 37 0 37 C0 24.79 0 12.58 0 0 Z " transform="translate(154,254)" style="fill: #10C085;"/><path d="M0 0 C4.64475959 -0.04944066 9.28936596 -0.08573863 13.93432617 -0.10986328 C15.51443144 -0.11992041 17.0945181 -0.13356785 18.67456055 -0.15087891 C20.9458475 -0.17514022 23.21688836 -0.18648582 25.48828125 -0.1953125 C26.54780754 -0.21079636 26.54780754 -0.21079636 27.6287384 -0.22659302 C31.32197792 -0.22743775 32.83919216 -0.10720523 36 2 C36.29201724 4.60115556 36.3962335 6.96091152 36.36328125 9.5625 C36.36402901 10.68313843 36.36402901 10.68313843 36.36479187 11.82641602 C36.36245023 13.40676532 36.35271631 14.98711827 36.33618164 16.56738281 C36.31259178 18.99057251 36.3156191 21.41266222 36.32226562 23.8359375 C36.31668886 25.36979825 36.30957899 26.90365435 36.30078125 28.4375 C36.30214836 29.52816772 36.30214836 29.52816772 36.30354309 30.64086914 C36.23102983 35.76897017 36.23102983 35.76897017 34 38 C33.01 38 32.02 38 31 38 C31.33 25.79 31.66 13.58 32 1 C21.44 1 10.88 1 0 1 C0 0.67 0 0.34 0 0 Z " transform="translate(123,167)" style="fill: #5CA2DD;"/><path d="M0 0 C0.99 0.495 0.99 0.495 2 1 C1.67 7.93 1.34 14.86 1 22 C2.32515625 21.18273437 3.6503125 20.36546875 5.015625 19.5234375 C6.75990952 18.47311564 8.50472926 17.42368228 10.25 16.375 C11.12269531 15.83359375 11.99539062 15.2921875 12.89453125 14.734375 C13.73886719 14.23164063 14.58320313 13.72890625 15.453125 13.2109375 C16.61569824 12.50396729 16.61569824 12.50396729 17.80175781 11.78271484 C20 11 20 11 22.28417969 11.86181641 C22.85040039 12.23741699 23.41662109 12.61301758 24 13 C24 13.66 24 14.32 24 15 C21.12619779 16.60631936 18.25074523 18.20966215 15.375 19.8125 C14.56675781 20.26431641 13.75851563 20.71613281 12.92578125 21.18164062 C12.13300781 21.62314453 11.34023437 22.06464844 10.5234375 22.51953125 C9.80075684 22.92276611 9.07807617 23.32600098 8.33349609 23.74145508 C5.58785938 25.22228342 2.790179 26.6049105 0 28 C0 18.76 0 9.52 0 0 Z " transform="translate(216,338)" style="fill: #655C65;"/><path d="M0 0 C3.3 0 6.6 0 10 0 C10 1.98 10 3.96 10 6 C6.7 7.32 3.4 8.64 0 10 C0 6.7 0 3.4 0 0 Z " transform="translate(322,113)" style="fill: #CECED3;"/><path d="M0 0 C3.23693164 1.48483103 5.9325625 3.32707435 8.75 5.5 C9.54921875 6.1084375 10.3484375 6.716875 11.171875 7.34375 C11.77515625 7.8903125 12.3784375 8.436875 13 9 C13 9.66 13 10.32 13 11 C6.00793057 11.71105791 6.00793057 11.71105791 3.35546875 9.83984375 C1.14801083 7.35247763 0.0473623 5.43573319 -0.3125 2.125 C-0.209375 1.42375 -0.10625 0.7225 0 0 Z " transform="translate(307,339)" style="fill: #E9CFC0;"/><path d="M0 0 C0.33 0 0.66 0 1 0 C1 3.96 1 7.92 1 12 C-0.98 11.34 -2.96 10.68 -5 10 C-3.66654496 6.40992874 -2.1056769 3.20429093 0 0 Z " transform="translate(356,189)" style="fill: #635962;"/></svg>